<svg id="Layer_1" data-name="Layer 1" xmlns="http://www.w3.org/2000/svg" xmlns:xlink="http://www.w3.org/1999/xlink" viewBox="0 0 400 700"><defs><style>.cls-1{fill:url(#linear-gradient);}.cls-2{fill:url(#linear-gradient-2);}.cls-3{fill:url(#linear-gradient-3);}.cls-4{fill:url(#linear-gradient-4);}.cls-5{fill:url(#linear-gradient-5);}.cls-6{fill:none;}.cls-12,.cls-7,.cls-8{fill:#fff;}.cls-7{opacity:0.06;}.cls-10,.cls-7,.cls-8,.cls-9{isolation:isolate;}.cls-8{opacity:0.15;}.cls-9{opacity:0.21;}.cls-10{opacity:0.1;}.cls-11{opacity:0.3;}</style><linearGradient id="linear-gradient" x1="-704.19" y1="767.94" x2="-697.34" y2="769.54" gradientTransform="matrix(55.73, 0, 0, -61.13, 39255.9, 47634.81)" gradientUnits="userSpaceOnUse"><stop offset="0" stop-color="#31bac6"/><stop offset="1" stop-color="#b6509e"/></linearGradient><linearGradient id="linear-gradient-2" x1="-701.88" y1="767.38" x2="-692.83" y2="769" gradientTransform="matrix(42.21, 0, 0, -60.24, 29648.47, 46951.49)" xlink:href="#linear-gradient"/><linearGradient id="linear-gradient-3" x1="-703.35" y1="768.13" x2="-696.51" y2="769.72" gradientTransform="matrix(55.78, 0, 0, -61.13, 39241.29, 47638.69)" xlink:href="#linear-gradient"/><linearGradient id="linear-gradient-4" x1="-702.33" y1="768.56" x2="-695.49" y2="770.16" gradientTransform="matrix(55.78, 0, 0, -61.13, 39181.2, 47635.57)" xlink:href="#linear-gradient"/><linearGradient id="linear-gradient-5" x1="-702.24" y1="771.51" x2="-694.84" y2="776.58" gradientTransform="matrix(54.82, 0, 0, -80.09, 38491.14, 62326)" gradientUnits="userSpaceOnUse"><stop offset="0" stop-color="#30bac6"/><stop offset="1" stop-color="#b6509e"/></linearGradient></defs><title>MediaKit</title><g id="Group_4051" data-name="Group 4051"><path id="Path_2431" data-name="Path 2431" class="cls-1" d="M243.75,683.31l-36.86-89.38a7.9,7.9,0,0,1-.45-2.54,7,7,0,0,1,1.81-5,6.35,6.35,0,0,1,4.89-1.9,6.63,6.63,0,0,1,3.8,1.26,8.11,8.11,0,0,1,2.63,3.36l35,87.48,35.05-87.48a8.08,8.08,0,0,1,2.62-3.36,6.68,6.68,0,0,1,3.81-1.26,6.35,6.35,0,0,1,4.89,1.9,7,7,0,0,1,1.81,5,7.79,7.79,0,0,1-.45,2.53l-36.86,89.39c-2.08,4.62-5.16,6.89-9.24,6.89H253C248.91,690.2,245.83,687.93,243.75,683.31Z"/><path id="Path_2432" data-name="Path 2432" class="cls-2" d="M318.46,687.48a6.54,6.54,0,0,1-1.91-4.8V592.11a6.92,6.92,0,0,1,1.91-4.89,6.27,6.27,0,0,1,4.79-2h59.86a6,6,0,0,1,4.53,1.9,6.1,6.1,0,0,1,1.9,4.53,5.76,5.76,0,0,1-1.9,4.44,6.38,6.38,0,0,1-4.53,1.81h-53v33h47.63a6,6,0,0,1,4.52,1.91,6.22,6.22,0,0,1,1.91,4.52,5.77,5.77,0,0,1-1.91,4.44,6.34,6.34,0,0,1-4.52,1.81H330.14v33.15h53a5.91,5.91,0,0,1,4.53,1.9,6.09,6.09,0,0,1,1.9,4.53,5.77,5.77,0,0,1-1.9,4.44,6.38,6.38,0,0,1-4.53,1.81H323.25A5.91,5.91,0,0,1,318.46,687.48Z"/><path id="Path_2433" data-name="Path 2433" class="cls-3" d="M215.22,680.78l-36.85-89.39c-2.07-4.62-5.16-6.88-9.24-6.88h-3.26c-4.08,0-7.16,2.26-9.24,6.88l-16,38.94H128.47a6.65,6.65,0,0,0-6.61,6.61V637a6.65,6.65,0,0,0,6.61,6.61H135l-15.3,37.13a7.91,7.91,0,0,0-.46,2.54,7,7,0,0,0,1.81,5,6.36,6.36,0,0,0,4.89,1.9,6.61,6.61,0,0,0,3.81-1.26,8.11,8.11,0,0,0,2.63-3.36l16.84-41.92h11.58A6.65,6.65,0,0,0,167.4,637v-.18a6.65,6.65,0,0,0-6.61-6.61h-6.25l13-32.15,35,87.49a8.08,8.08,0,0,0,2.63,3.35,6.64,6.64,0,0,0,3.8,1.27,6.35,6.35,0,0,0,4.89-1.91,7,7,0,0,0,1.81-5A6,6,0,0,0,215.22,680.78Z"/><path id="Path_2434" data-name="Path 2434" class="cls-4" d="M105.11,680.78,68.25,591.39c-2.08-4.62-5.16-6.88-9.24-6.88H55.75c-4.07,0-7.15,2.26-9.23,6.88l-16,38.94H18.35a6.65,6.65,0,0,0-6.61,6.61V637a6.65,6.65,0,0,0,6.61,6.62h6.52L9.57,680.78a7.79,7.79,0,0,0-.45,2.53,7,7,0,0,0,1.81,5,6.35,6.35,0,0,0,4.89,1.9,6.59,6.59,0,0,0,3.8-1.27,8.08,8.08,0,0,0,2.63-3.35l16.84-41.93H50.77A6.65,6.65,0,0,0,57.38,637v-.18a6.65,6.65,0,0,0-6.61-6.61H44.52l12.86-32.16,35.05,87.49a8.08,8.08,0,0,0,2.63,3.35,6.57,6.57,0,0,0,3.8,1.27,6.35,6.35,0,0,0,4.89-1.91,7,7,0,0,0,1.81-5A5.94,5.94,0,0,0,105.11,680.78Z"/></g><g id="Group_13465" data-name="Group 13465"><path id="Path_7142" data-name="Path 7142" class="cls-5" d="M389.41,193.54c-2-105-88.73-188.45-193.71-186.44A190.1,190.1,0,0,0,9.26,193.54c0,.47-.06,1-.06,1.45v2.93h0V541.61a21.13,21.13,0,1,0,42.26,0V480.19a21.13,21.13,0,1,1,42.26,0v29.14a21.14,21.14,0,0,0,42.27,0h0V480.19a21.13,21.13,0,0,1,21.12-21.13h0a21.14,21.14,0,0,1,21.13,21.13v8a21.13,21.13,0,0,0,42.26,0v-8a21.14,21.14,0,0,1,42.27,0v29.14a21.13,21.13,0,1,0,42.26,0h0V480.19a21.13,21.13,0,0,1,21.12-21.13h0a21.14,21.14,0,0,1,21.13,21.13v61.42a21.13,21.13,0,1,0,42.26,0V195C389.48,194.5,389.45,194,389.41,193.54ZM129.22,224c-18.68,0-33.83-17.34-33.83-38.79s15.15-38.79,33.83-38.79,33.83,17.34,33.83,38.79S147.93,224,129.24,224Zm71.62,54.75c-17,0-30.7-10.1-30.7-22.57s13.75-4.94,30.7-4.94,30.7-7.52,30.7,4.94-13.71,22.56-30.68,22.56ZM269.45,224c-18.68,0-33.83-17.34-33.83-38.79s15.15-38.79,33.83-38.79,33.83,17.34,33.83,38.79S288.14,224,269.46,224Z"/><g id="Group_13464" data-name="Group 13464"><ellipse id="Ellipse_598" data-name="Ellipse 598" class="cls-6" cx="129.24" cy="185.18" rx="33.83" ry="38.79"/><path id="Path_7143" data-name="Path 7143" class="cls-6" d="M200.86,251.2c-17,0-30.7-7.52-30.7,4.94s13.75,22.56,30.7,22.56,30.7-10.1,30.7-22.56S217.83,251.2,200.86,251.2Z"/><ellipse id="Ellipse_599" data-name="Ellipse 599" class="cls-6" cx="269.47" cy="185.18" rx="33.83" ry="38.79"/></g><path id="Path_7146" data-name="Path 7146" class="cls-7" d="M12.05,165.07S48.83,48.27,201.42,49.4c189.37,2.29,188,214.4,188,214.4s17.08-148.69-71.73-214.66-164-36.7-198.43-23.76S19.46,93.21,12.05,165.07Z"/><path id="Path_7147" data-name="Path 7147" class="cls-8" d="M36.23,100.19S98,33,183.6,32.11,329.18,59.28,357.38,117a374.42,374.42,0,0,1,32.1,125s17.08-126.87-71.73-192.82S153.8,12.46,119.31,25.4,60.52,66.92,36.23,100.19Z"/><path id="Path_7148" data-name="Path 7148" class="cls-9" d="M95.4,185.18s2.38-41.48,33.84-41.53,33.83,41.53,33.83,41.53-6.56-38.79-33.83-38.79C109.76,146.42,94.54,176.43,95.4,185.18Z"/><path id="Path_7149" data-name="Path 7149" class="cls-9" d="M235.65,185.18s2.38-41.48,33.83-41.53,33.83,41.53,33.83,41.53-6.55-38.79-33.83-38.79C250,146.42,234.76,176.43,235.65,185.18Z"/><path id="Path_7150" data-name="Path 7150" class="cls-10" d="M129.24,138.61c-15,0-38.24,16.84-38.24,46.56a41.06,41.06,0,0,0,38.24,42.94c14.5,0,36.43-13.18,36.43-42.94S144.23,138.61,129.24,138.61Zm.51,84.72C108.53,224,95.94,200.24,95.94,183a34.07,34.07,0,0,1,33.21-34.91h.6c21.06,0,30.17,17.64,30.17,34.92S151,222.71,129.75,223.33Z"/><path id="Path_7151" data-name="Path 7151" class="cls-10" d="M270.7,138.61c-15,0-38.25,16.84-38.25,46.56a41.07,41.07,0,0,0,38.25,42.94c14.5,0,36.42-13.18,36.42-42.94S285.68,138.61,270.7,138.61Zm.5,84.72C250,224,237.39,200.24,237.39,183a34.08,34.08,0,0,1,33.22-34.91h.59c21.06,0,30.18,17.64,30.18,34.92S292.43,222.71,271.2,223.33Z"/><path id="Path_7152" data-name="Path 7152" class="cls-10" d="M170.79,260.71s5.07,18,30.49,18c22.08-.5,28.56-14.57,29.37-16.5A28,28,0,0,1,201.44,287,29.61,29.61,0,0,1,170.79,260.71Z"/><g class="cls-11"><path class="cls-12" d="M372.28,313.18a3,3,0,0,0-3,3v91.14a3,3,0,0,0,6,0V316.17A3,3,0,0,0,372.28,313.18Z"/><path class="cls-12" d="M372.28,266a3,3,0,0,0-3,3v18.45a3,3,0,0,0,6,0V269A3,3,0,0,0,372.28,266Z"/><path class="cls-12" d="M26.83,242.87a3,3,0,0,0-3,3v54.79a3,3,0,1,0,6,0V245.86A3,3,0,0,0,26.83,242.87Z"/></g></g></svg>