<svg xmlns="http://www.w3.org/2000/svg" id="Group_15840" data-name="Group 15840" viewBox="0 0 54.998 80">
  <defs>
    <linearGradient id="linear-gradient" x1="-.033" x2="1.033" y1=".955" y2=".224" gradientUnits="objectBoundingBox">
      <stop offset="0" stop-color="#2ebac6"/>
      <stop offset="1" stop-color="#ffffff"/>
    </linearGradient>
    <style>
      .cls-2{fill:none}.cls-5{opacity:.21}.cls-6{opacity:.1}.cls-7{stroke:#fff;stroke-linecap:round;stroke-linejoin:round;stroke-miterlimit:10;opacity:.37}
    </style>
  </defs>
  <g id="Group_13465" data-name="Group 13465">
    <path id="Path_7142" fill="url(#linear-gradient)" d="M200.718 125.3a27.4 27.4 0 00-54.79 0 2.875 2.875 0 00-.008.209v49.957a3.045 3.045 0 106.091 0v-8.853a3.045 3.045 0 116.091 0v4.2a3.045 3.045 0 006.091 0v-4.2a3.046 3.046 0 013.045-3.045 3.046 3.046 0 013.045 3.045v1.147a3.045 3.045 0 106.091 0v-1.147a3.045 3.045 0 116.091 0v4.2a3.045 3.045 0 006.091 0v-4.2a3.046 3.046 0 013.045-3.045 3.046 3.046 0 013.045 3.045v8.853a3.045 3.045 0 106.091 0v-49.957a3.772 3.772 0 01-.019-.209zm-37.5 4.386c-2.692 0-4.876-2.5-4.876-5.591s2.184-5.591 4.876-5.591 4.876 2.5 4.876 5.591-2.179 5.59-4.873 5.59zm10.322 7.89c-2.443 0-4.425-1.456-4.425-3.252s1.982-.712 4.425-.712 4.425-1.084 4.425.712-1.977 3.251-4.422 3.251zm9.888-7.89c-2.692 0-4.876-2.5-4.876-5.591s2.184-5.591 4.876-5.591 4.876 2.5 4.876 5.591-2.182 5.59-4.874 5.59z" data-name="Path 7142" transform="translate(-145.92 -98.51)"/>
    <g id="Group_13464" data-name="Group 13464" transform="translate(12.425 19.994)">
      <ellipse id="Ellipse_598" cx="4.876" cy="5.591" class="cls-2" data-name="Ellipse 598" rx="4.876" ry="5.591"/>
      <path id="Path_7143" d="M238.935 231.586c-2.443 0-4.425-1.084-4.425.712s1.982 3.252 4.425 3.252 4.425-1.456 4.425-3.252-1.979-.712-4.425-.712z" class="cls-2" data-name="Path 7143" transform="translate(-223.737 -216.48)"/>
      <ellipse id="Ellipse_599" cx="4.876" cy="5.591" class="cls-2" data-name="Ellipse 599" rx="4.876" ry="5.591" transform="translate(20.21)"/>
    </g>
    <path id="Path_7146" fill="#fff" d="M147.49 121.14s5.3-16.834 27.293-16.67c27.293.33 27.1 30.9 27.1 30.9s2.461-21.43-10.338-30.938-23.63-5.289-28.6-3.425-14.387 9.777-15.455 20.133z" data-name="Path 7146" opacity=".06" transform="translate(-147.079 -98.454)"/>
    <path id="Path_7147" fill="#fff" d="M160.8 111.8s8.9-9.683 21.239-9.812 20.982 3.915 25.046 12.239a53.976 53.976 0 014.627 18.008s2.461-18.285-10.338-27.79-23.63-5.289-28.6-3.425-8.474 5.985-11.974 10.78z" data-name="Path 7147" opacity=".15" transform="translate(-156.904 -98.464)"/>
    <path id="Path_7148" d="M193.355 179.286s.343-5.978 4.876-5.986 4.876 5.986 4.876 5.986-.945-5.591-4.876-5.591c-2.807.005-5.001 4.329-4.876 5.591z" class="cls-5" data-name="Path 7148" transform="translate(-180.931 -153.701)"/>
    <path id="Path_7149" d="M270.545 179.286s.343-5.978 4.876-5.986 4.876 5.986 4.876 5.986-.945-5.591-4.876-5.591c-2.81.005-5.004 4.329-4.876 5.591z" class="cls-5" data-name="Path 7149" transform="translate(-237.908 -153.701)"/>
    <path id="Path_7150" d="M196.452 170.53c-2.16 0-5.512 2.427-5.512 6.711a5.917 5.917 0 005.512 6.188c2.09 0 5.25-1.9 5.25-6.188s-3.09-6.711-5.25-6.711zm.073 12.21c-3.058.089-4.873-3.328-4.873-5.818a4.911 4.911 0 014.873-5.033c3.035 0 4.349 2.543 4.349 5.033s-1.29 5.729-4.349 5.818z" class="cls-6" data-name="Path 7150" transform="translate(-179.151 -151.657)"/>
    <path id="Path_7151" d="M274.312 170.53c-2.16 0-5.512 2.427-5.512 6.711a5.917 5.917 0 005.512 6.188c2.09 0 5.25-1.9 5.25-6.188s-3.09-6.711-5.25-6.711zm.073 12.21c-3.058.089-4.873-3.328-4.873-5.818a4.911 4.911 0 014.873-5.033c3.035 0 4.349 2.543 4.349 5.033s-1.29 5.729-4.349 5.818z" class="cls-6" data-name="Path 7151" transform="translate(-236.624 -151.657)"/>
    <path id="Path_7152" d="M234.86 237.73s.731 2.6 4.394 2.6c3.182-.071 4.116-2.1 4.234-2.378a4.031 4.031 0 01-4.211 3.572 4.267 4.267 0 01-4.417-3.794z" class="cls-6" data-name="Path 7152" transform="translate(-211.571 -201.26)"/>
    <path id="Line_105" d="M0 0v13.135" class="cls-7" data-name="Line 105" transform="translate(52.329 44.464)"/>
    <path id="Line_106" d="M0 0v2.658" class="cls-7" data-name="Line 106" transform="translate(52.329 37.666)"/>
    <path id="Line_107" d="M0 0v7.897" class="cls-7" data-name="Line 107" transform="translate(2.54 34.33)"/>
  </g>
</svg>
