<svg width="489" height="284" viewBox="0 0 489 284" fill="none" xmlns="http://www.w3.org/2000/svg">
<path d="M65.4128 50.5033C101.497 50.5033 130.749 80.2436 130.749 116.93V155.126C130.749 191.812 101.497 221.552 65.4128 221.552C59.7447 221.552 54.2453 220.819 49.0013 219.439L49.0019 223.948C49.0019 250.786 27.4996 272.593 0.810361 273.027L0 273.033V126.894L0.0748859 126.892L0.0768772 116.93C0.0768772 80.2436 29.3288 50.5033 65.4128 50.5033ZM358.002 50.5033C394.108 50.5033 423.377 80.4136 423.377 117.31V155.724C423.377 192.62 394.108 222.53 358.002 222.53C321.897 222.53 292.628 192.62 292.628 155.724V117.31C292.628 80.4136 321.897 50.5033 358.002 50.5033ZM211.688 47.3468C247.794 47.3468 277.063 77.2571 277.063 114.153V152.567C277.063 189.463 247.794 219.374 211.688 219.374C175.583 219.374 146.314 189.463 146.314 152.567V114.153C146.314 77.2571 175.583 47.3468 211.688 47.3468ZM488.751 0V169.48C488.751 196.76 466.895 218.926 439.766 219.367L438.942 219.374V49.8933C438.942 22.338 461.242 0 488.751 0ZM358.002 100.608C348.976 100.608 341.659 108.086 341.659 117.31V155.724C341.659 164.948 348.976 172.425 358.002 172.425C367.029 172.425 374.346 164.948 374.346 155.724V117.31C374.346 108.086 367.029 100.608 358.002 100.608ZM65.4128 100.323C56.3918 100.323 49.0788 107.758 49.0788 116.93V155.126C49.0788 164.297 56.3918 171.732 65.4128 171.732C74.4338 171.732 81.7468 164.297 81.7468 155.126V116.93C81.7468 107.758 74.4338 100.323 65.4128 100.323ZM211.688 97.4517C202.662 97.4517 195.345 104.929 195.345 114.153V152.567C195.345 161.791 202.662 169.269 211.688 169.269C220.715 169.269 228.032 161.791 228.032 152.567V114.153C228.032 104.929 220.715 97.4517 211.688 97.4517Z" fill="white"/>
<path d="M284.006 268.293H282.489C280.98 268.293 279.655 266.871 279.655 264.656V254.192H282.891C284.397 254.192 285.546 253.188 285.546 251.76C285.546 251.038 285.279 250.396 284.79 249.937C284.303 249.48 283.636 249.239 282.891 249.239H279.655V243.371C279.655 241.769 278.469 240.582 276.867 240.582C275.264 240.582 274.078 241.769 274.078 243.371V249.239H272.583C271.838 249.239 271.17 249.48 270.684 249.937C270.195 250.396 269.928 251.038 269.928 251.76C269.928 253.188 271.077 254.192 272.583 254.192H274.078V264.656C274.078 269.866 277.67 273.871 282.489 273.871H283.292C285.026 273.871 286.483 272.768 286.483 271.082C286.483 269.553 285.454 268.293 284.006 268.293Z" fill="white"/>
<path fill-rule="evenodd" clip-rule="evenodd" d="M317.646 261.131L317.646 261.127C317.599 253.556 312.271 248.168 304.817 248.168C301.066 248.168 297.841 249.501 295.552 251.808C293.264 254.114 291.943 257.361 291.943 261.131C291.943 264.879 293.264 268.115 295.552 270.415C297.841 272.716 301.066 274.049 304.817 274.049C308.545 274.049 311.76 272.715 314.042 270.415C316.325 268.115 317.646 264.879 317.646 261.131ZM304.817 253.3C306.991 253.3 308.816 254.112 310.1 255.478C311.385 256.846 312.157 258.801 312.157 261.131C312.157 263.46 311.386 265.404 310.101 266.76C308.818 268.115 306.993 268.917 304.817 268.917C302.639 268.917 300.802 268.114 299.508 266.759C298.213 265.401 297.432 263.458 297.432 261.131C297.432 256.502 300.512 253.3 304.817 253.3Z" fill="white"/>
<path fill-rule="evenodd" clip-rule="evenodd" d="M337.07 284C332.681 284 328.676 282.241 326.015 278.883C325.521 278.277 325.335 277.57 325.454 276.892C325.573 276.219 325.982 275.626 326.582 275.217L326.587 275.214C327.923 274.323 329.54 274.724 330.416 275.872C331.904 277.771 334.185 278.868 337.159 278.868C339.161 278.868 340.985 278.13 342.31 276.733C343.635 275.336 344.5 273.239 344.5 270.457V270.103C342.527 272.589 339.659 274.049 336.267 274.049C332.77 274.049 329.764 272.705 327.635 270.4C325.509 268.098 324.286 264.867 324.286 261.131C324.286 257.361 325.606 254.114 327.895 251.808C330.183 249.501 333.409 248.168 337.159 248.168C344.614 248.168 349.942 253.556 349.988 261.127L349.988 261.131L349.988 270.769C349.988 278.101 344.722 284 337.07 284ZM337.159 268.917C334.982 268.917 333.145 268.114 331.851 266.759C330.555 265.401 329.774 263.458 329.774 261.131C329.774 256.502 332.855 253.3 337.159 253.3C339.334 253.3 341.159 254.112 342.442 255.478C343.728 256.846 344.5 258.801 344.5 261.131C344.5 263.46 343.728 265.404 342.444 266.76C341.161 268.115 339.336 268.917 337.159 268.917Z" fill="white"/>
<path fill-rule="evenodd" clip-rule="evenodd" d="M378.245 267.483C377.264 266.675 375.818 266.708 374.746 267.511C373.63 268.337 371.605 269.096 369.903 269.096C365.857 269.096 362.87 266.722 362.018 263.25H378.292C379.02 263.25 379.677 263.006 380.156 262.55C380.636 262.091 380.903 261.451 380.903 260.729C380.903 257.097 379.833 253.953 377.815 251.71C375.79 249.461 372.855 248.168 369.234 248.168C365.569 248.168 362.409 249.504 360.166 251.812C357.924 254.118 356.628 257.364 356.628 261.131C356.628 264.885 357.998 268.123 360.361 270.422C362.723 272.719 366.047 274.049 369.903 274.049C372.74 274.049 376.21 272.898 378.325 271.207C378.937 270.733 379.269 270.08 379.246 269.373C379.223 268.676 378.858 268.015 378.257 267.492L378.245 267.483ZM369.234 253.121C371.107 253.121 372.581 253.752 373.652 254.802C374.601 255.734 375.261 257.023 375.578 258.565H362.067C362.448 257.022 363.199 255.738 364.268 254.808C365.481 253.753 367.142 253.121 369.234 253.121Z" fill="white"/>
<path d="M398.778 268.293H397.261C395.753 268.293 394.428 266.871 394.428 264.656V254.192H397.663C399.169 254.192 400.318 253.188 400.318 251.76C400.318 251.038 400.051 250.396 399.562 249.937C399.076 249.48 398.408 249.239 397.663 249.239H394.428V243.371C394.428 241.769 393.241 240.582 391.639 240.582C390.037 240.582 388.85 241.769 388.85 243.371V249.239H387.355C386.61 249.239 385.942 249.48 385.456 249.937C384.967 250.396 384.7 251.038 384.7 251.76C384.7 253.188 385.849 254.192 387.355 254.192H388.85V264.656C388.85 269.866 392.442 273.871 397.261 273.871H398.064C399.798 273.871 401.255 272.768 401.255 271.082C401.255 269.553 400.226 268.293 398.778 268.293Z" fill="white"/>
<path d="M420.66 248.123C417.965 248.123 415.523 248.966 413.632 250.436V240.738C413.632 239.935 413.348 239.22 412.832 238.704C412.317 238.188 411.601 237.905 410.798 237.905C409.995 237.905 409.28 238.188 408.764 238.704C408.248 239.22 407.965 239.935 407.965 240.738V271.082C407.965 271.885 408.248 272.6 408.764 273.116C409.28 273.632 409.995 273.915 410.798 273.915C411.601 273.915 412.317 273.632 412.832 273.116C413.348 272.6 413.632 271.885 413.632 271.082V258.498C413.632 255.63 416.195 253.344 419.767 253.344C421.698 253.344 423.319 253.884 424.454 254.96C425.584 256.029 426.305 257.698 426.305 260.104V271.082C426.305 272.684 427.536 273.915 429.138 273.915C430.74 273.915 431.972 272.684 431.972 271.082V260.104C431.972 256.282 430.771 253.274 428.724 251.221C426.679 249.17 423.84 248.123 420.66 248.123Z" fill="white"/>
<path fill-rule="evenodd" clip-rule="evenodd" d="M461.071 263.25H444.796C445.648 266.722 448.635 269.096 452.682 269.096C454.383 269.096 456.41 268.336 457.525 267.51C458.597 266.708 460.043 266.675 461.024 267.483L461.035 267.493C461.636 268.015 462.001 268.676 462.024 269.373C462.048 270.081 461.715 270.733 461.103 271.208C458.988 272.898 455.518 274.049 452.682 274.049C448.825 274.049 445.502 272.719 443.14 270.422C440.776 268.123 439.406 264.885 439.406 261.131C439.406 257.364 440.702 254.118 442.944 251.812C445.187 249.504 448.347 248.168 452.012 248.168C455.633 248.168 458.568 249.461 460.593 251.71C462.611 253.953 463.681 257.097 463.681 260.729C463.681 261.451 463.414 262.091 462.934 262.55C462.455 263.006 461.799 263.25 461.071 263.25ZM452.012 253.121C453.886 253.121 455.359 253.752 456.43 254.802C457.379 255.734 458.039 257.023 458.356 258.565H444.845C445.226 257.022 445.977 255.738 447.046 254.808C448.259 253.753 449.921 253.121 452.012 253.121Z" fill="white"/>
<path d="M483.118 248.079C480.459 248.079 477.995 249.05 476.154 250.661C476.084 250.033 475.865 249.486 475.453 249.073C474.94 248.56 474.217 248.346 473.391 248.346C472.574 248.346 471.857 248.578 471.345 249.09C470.833 249.602 470.602 250.319 470.602 251.135V271.082C470.602 271.916 470.831 272.637 471.348 273.147C471.864 273.655 472.582 273.871 473.391 273.871C474.225 273.871 474.946 273.641 475.456 273.124C475.964 272.608 476.18 271.89 476.18 271.082V258.052C476.18 256.232 477.123 254.851 478.752 254.026C480.404 253.19 482.776 252.926 485.546 253.466C486.201 253.616 486.875 253.606 487.454 253.32C488.054 253.024 488.468 252.472 488.657 251.717C488.788 251.193 488.739 250.674 488.508 250.2C488.281 249.733 487.895 249.343 487.403 249.034C486.426 248.421 484.959 248.079 483.118 248.079Z" fill="white"/>
</svg>
